<svg width="70" height="80" viewBox="0 0 70 80" fill="none" xmlns="http://www.w3.org/2000/svg">
<g opacity="0.05">
<path d="M33.4185 40.0449C33.4185 40.0449 35.2131 37.6841 36.3748 33.6702C37.4324 30.0034 41.668 32.1693 42.2689 32.5779C45.3615 34.6717 46.1546 36.6185 46.9772 40.1998C47.7597 43.5808 47.0573 45.5464 47.0573 45.5464C52.5321 43.6903 58.4822 39.1075 56.9867 34.1028C55.8036 30.1129 52.3238 28.3423 48.6864 27.1272C45.3321 26.0055 41.8389 26.5049 39.1897 23.9385C36.9811 21.7806 36.6045 17.9296 34.2036 15.7984C33.3597 15.0453 31.7787 14.7382 30.7345 14.9785C29.8425 15.1174 29.3992 14.8691 28.9559 14.6768C28.9559 14.6768 28.8517 14.7195 28.9719 14.9652C29.068 15.1521 30.2218 17.2512 30.2218 19.1554L30.2271 19.0993C30.2645 23.0785 28.0612 27.226 27.2333 28.5399C23.3449 34.7064 18.6126 35.4702 13.5571 37.9138C4.41294 42.355 6.43726 54.3354 14.134 61.1321C14.0752 44.9055 24.6028 51.8517 33.4158 40.0503L33.4185 40.0449ZM42.5253 51.0078C46.1146 40.8461 39.7692 35.2619 39.7692 35.2619C39.9081 35.3527 37.833 39.4227 37.6567 39.8767C33.0152 51.833 18.5645 48.4413 16.4734 61.952C16.4734 61.952 15.5467 64.2861 18.9918 67.9422C19.1841 68.1318 24.8672 72.346 24.9259 72.581C23.9378 68.6472 22.0123 62.4487 30.8146 56.6775C31.0149 56.5493 34.8873 54.1591 35.0983 54.0737C35.3146 55.7001 31.6639 59.5725 30.8066 61.255C23.8123 74.9579 38.952 80 38.952 80C38.952 80 31.1992 65.1995 44.5015 57.671C41.8202 60.2214 41.457 68.2894 43.1609 72.1457C43.1155 72.8294 44.384 68.5698 48.0294 66.0727C59.9457 57.874 61.8365 48.7111 60.138 41.4684C54.9703 47.8138 45.5511 50.9998 42.5253 51.0025V51.0078ZM54.5991 14.7329C58.2312 15.1094 66.6142 19.8124 69.0124 25.7224C70.9406 22.6272 69.7388 13.9797 66.4406 12.4308C64.1572 11.3519 54.6472 7.68777 52.2597 7.87471C48.1923 8.18451 44.5309 6.02665 40.776 5.35098C40.0923 5.23615 40.509 4.59787 41.3796 4.46701C42.584 4.28274 44.7152 4.25336 46.4297 4.67265C46.4297 4.67265 50.887 5.95988 53.9181 6.1308C56.5246 6.27769 62.6831 8.03228 65.4739 9.61863C65.8104 6.713 57.219 0.936459 55.1092 0.418359C52.1982 -0.305377 43.8365 0.0444734 40.8935 0.461089C36.5484 1.078 32.166 3.0596 27.7408 1.84981C26.9743 1.63883 26.2719 1.38512 25.4868 1.2783C24.8004 1.17414 24.058 1.06732 23.3957 1.29432C22.1244 1.72429 20.3885 3.21449 20.669 4.75811C20.9868 6.55543 23.1313 6.20558 24.1888 5.45781C26.312 3.96761 32.4864 4.52042 32.7001 7.74653C32.7161 8.01893 32.6947 8.27798 32.6547 8.51833C32.5051 9.38094 32.1366 9.9845 31.8829 10.4545C31.8321 10.5373 31.7974 10.6148 31.7547 10.6869C32.9858 11.3412 34.7217 12.3427 35.9128 13.4349C38.3885 15.753 39.5636 16.9548 40.9122 20.0848C42.7523 24.3658 46.7155 23.7088 50.262 24.6061C51.8938 25.012 53.7392 25.88 55.403 26.4755C60.2208 28.2008 62.7632 35.577 63.4308 39.1663C66.6009 36.2527 66.948 28.0245 65.1507 25.2925C63.9436 23.4604 58.2178 19.0699 56.3243 18.5545C52.9193 17.6225 44.9983 16.7118 45.479 11.6082C48.657 12.2892 51.6935 14.4418 54.6018 14.7382L54.5991 14.7329ZM9.2601 35.3633C12.4221 34.247 17.0396 33.2349 19.6675 31.1758C21.8734 29.4453 22.2366 28.1153 23.4384 26.3233C25.3452 23.4845 26.7072 22.1278 26.1678 18.6827C25.5108 14.4978 24.3304 15.088 28.4458 11.6323C29.3137 10.8204 30.1603 8.82812 28.4298 7.55424C26.8114 6.36315 24.7657 6.91329 23.8016 7.43673C19.6515 9.99518 20.8212 6.71834 17.109 6.03733C15.8912 5.82902 14.2702 6.50736 13.055 8.48361C13.0364 8.50765 13.0257 8.53169 13.007 8.56106C10.9372 12.0863 7.17168 14.0545 3.60908 15.6889C3.55033 15.721 2.60226 16.1937 1.69959 16.8827C1.24559 17.2245 0.807607 17.6225 0.508498 18.0097C-0.0229545 18.6613 -0.121767 19.0993 0.137282 19.8311C0.228083 20.0821 0.161318 20.2637 0.417697 20.448C1.34707 21.113 3.46487 19.9699 4.28208 19.6121C5.78563 18.9578 3.56635 20.3812 2.63698 21.5002C2.26309 21.9489 1.62749 22.7073 1.6622 23.3376C1.68357 23.7782 2.01472 24.275 2.18831 24.6622C2.57021 25.5008 2.9895 26.0616 3.90285 26.7239C4.82154 27.7014 7.39334 27.039 7.39334 27.039C7.39334 27.039 8.41886 27.1058 10.323 26.6251C10.4592 26.5931 10.9666 26.4221 11.2711 26.1871C11.6289 25.912 12.358 24.7503 13.0283 25.3299C13.0283 25.3299 14.2568 26.1604 13.8375 26.8922C13.6933 27.1405 13.461 27.3168 12.9562 27.4744C10.7316 28.1527 9.2601 28.2462 9.2601 28.2462C8.14378 28.4037 7.09423 28.4678 6.36248 28.4518C6.36248 28.4518 5.19276 28.6334 5.1073 28.9859C4.22065 30.639 6.20492 32.431 6.77376 33.8705C7.46278 35.6224 7.60699 35.9536 9.26811 35.3633H9.2601ZM13.6453 17.9029C13.5918 17.9029 12.9723 17.2459 12.9162 17.1685C12.6277 16.6904 12.5316 15.7584 12.5316 15.7584C11.9334 15.7958 10.9319 16.1002 10.6114 16.175C10.3737 16.2417 10.5153 15.8946 10.6088 15.7584C11.1188 14.9919 13.3782 14.0091 13.6853 13.7634C17.5604 12.559 19.0639 12.4468 19.0639 12.4468C19.1814 12.7619 18.0678 13.4269 16.9675 14.0705C16.5028 14.3403 16.2224 14.2735 15.2236 15.299C14.2835 16.3219 13.9871 17.2993 13.6453 17.9082V17.9029Z" fill="#A40F16"/>
</g>
</svg>
